<svg xmlns="http://www.w3.org/2000/svg" xmlns:xlink="http://www.w3.org/1999/xlink" viewBox="0,0,256,256" width="100px" height="100px" fill-rule="nonzero"><g fill="#c9beaf" fill-rule="nonzero" stroke="none" stroke-width="1" stroke-linecap="butt" stroke-linejoin="miter" stroke-miterlimit="10" stroke-dasharray="" stroke-dashoffset="0" font-family="none" font-weight="none" font-size="none" text-anchor="none" style="mix-blend-mode: normal"><g transform="scale(2.56,2.56)"><path d="M41.36328,16c-0.35684,0.00005 -0.68663,0.19023 -0.8654,0.49906c-0.17878,0.30883 -0.17946,0.68952 -0.00178,0.99899l37.94922,66c0.18349,0.31948 0.52778,0.5122 0.89605,0.50158c0.36827,-0.01062 0.70088,-0.22285 0.86567,-0.55236l6.67773,-13.35547c1.13137,-2.26275 1.06206,-4.94281 -0.18555,-7.14453l-24.41992,-43.09375c-1.3487,-2.37978 -3.87589,-3.85352 -6.61133,-3.85352zM43.0918,18h11.81641l4.71094,8.31641c0.08791,0.15563 0.25217,0.25254 0.43091,0.25421c0.17874,0.00167 0.34478,-0.09215 0.43558,-0.24611c0.0908,-0.15396 0.09255,-0.34467 0.00461,-0.50028l-4.41797,-7.79687c1.85889,0.13477 3.53873,1.17493 4.4668,2.8125l24.41992,43.09375c0.92039,1.62427 0.97135,3.59442 0.13672,5.26367l-0.01172,0.02539l-22.83398,-40.29297c-0.09023,-0.16486 -0.26527,-0.26521 -0.45312,-0.25977c-0.17618,0.00557 -0.33641,0.10349 -0.42175,0.25773c-0.08533,0.15424 -0.08315,0.34201 0.00573,0.49423l23.16406,40.87891l-5.29492,10.58594zM34.75977,27.55078c-0.35328,0.00076 -0.67996,0.18785 -0.85937,0.49219l-16.5,28.05078c-0.18133,0.30934 -0.18318,0.69208 -0.00485,1.00316c0.17833,0.31108 0.50956,0.50288 0.86813,0.5027h34.64844c0.36627,-0.00003 0.70321,-0.20028 0.87831,-0.52198c0.1751,-0.3217 0.16034,-0.71338 -0.03847,-1.02099l-18.14844,-28.05078c-0.18549,-0.28539 -0.50338,-0.45685 -0.84375,-0.45508zM34.80273,30.45313l16.27344,25.14648h-31.06445zM13.3125,67.15039c-0.35371,0.0007 -0.68075,0.18819 -0.86007,0.49308c-0.17932,0.30489 -0.18426,0.68182 -0.01298,0.9913l8.25,14.85156c0.17637,0.31684 0.51043,0.51339 0.87305,0.51367h46.20117c0.3543,-0.00032 0.68199,-0.18807 0.86144,-0.49357c0.17945,-0.3055 0.18386,-0.68314 0.01161,-0.99275l-8.25,-14.84961c-0.17637,-0.31684 -0.51043,-0.51339 -0.87305,-0.51367zM15.01367,69.15039h43.91016l5.47266,9.84961h-19.89648c-0.18032,-0.00255 -0.34804,0.09219 -0.43894,0.24794c-0.0909,0.15575 -0.0909,0.34838 0,0.50413c0.0909,0.15575 0.25863,0.25049 0.43894,0.24794h20.45117l1.11133,2h-43.91016l-1.11133,-2h14.45898c0.18032,0.00255 0.34804,-0.09219 0.43894,-0.24794c0.0909,-0.15575 0.0909,-0.34838 0,-0.50413c-0.0909,-0.15575 -0.25863,-0.25049 -0.43894,-0.24794h-15.01367zM38.5,79c-0.18032,-0.00255 -0.34804,0.09219 -0.43894,0.24794c-0.0909,0.15575 -0.0909,0.34838 0,0.50413c0.0909,0.15575 0.25863,0.25049 0.43894,0.24794h2c0.18032,0.00255 0.34804,-0.09219 0.43894,-0.24794c0.0909,-0.15575 0.0909,-0.34838 0,-0.50413c-0.0909,-0.15575 -0.25863,-0.25049 -0.43894,-0.24794z"></path></g></g></svg>